<svg xmlns="http://www.w3.org/2000/svg" enable-background="new 0 0 50 50" viewBox="0 0 50 50"><path fill="#010101" d="M15.9371,48.44672c0.1582,0.3208,0.47656,0.53174,0.83399,0.55371
		c0.02051,0.00146,0.04102,0.00195,0.06152,0.00195c0.33496,0,0.64941-0.16797,0.83496-0.44922L25.1041,37.2818l7.26172,11.26257
		c0.18555,0.28662,0.50195,0.45801,0.84082,0.45801c0.02051,0,0.04102-0.00049,0.06152-0.00195
		c0.36133-0.02197,0.68164-0.23779,0.83887-0.56348l6.6084-13.69531c0.16992-0.35156,0.11914-0.76953-0.12891-1.0708
		l-7.35986-8.92945l4.77197-7.41528c2.64722-4.08984,1.62793-10.11841-2.25586-13.50928
		c-1.60645-2.13684-6.70264-2.87549-10.97656-2.81592C22.81015,1.0202,16.39169,1.28778,14.4935,3.81708
		c-3.87769,3.38501-4.89697,9.4126-2.25757,13.50708l4.7832,7.41846l-7.60547,9.21778
		c-0.25098,0.3042-0.2998,0.72705-0.12402,1.08057L15.9371,48.44672z M36.31796,16.24164l-4.42676,6.87952l-5.47754-6.64587
		l8.67188-10.52026C37.70273,8.78119,38.29062,13.19379,36.31796,16.24164z M23.1998,12.57611h3.83618l-1.91821,2.3269
		L23.1998,12.57611z M24.78671,3.00043c4.34595-0.0437,7.53564,0.71118,8.85034,1.56738l-4.95239,6.0083h-7.1333l-4.95508-6.01196
		C17.82919,3.75665,20.72543,3.04096,24.78671,3.00043z M15.15097,5.95502l23.48535,28.49414l-5.55566,11.5127L13.91757,16.24018
		C11.95077,13.19037,12.53866,8.77777,15.15097,5.95502z M18.15659,26.50653l5.76294,8.93799l-6.96387,10.55542l-5.58692-11.26709
		L18.15659,26.50653z"/></svg>