<svg xmlns="http://www.w3.org/2000/svg" id="Layer_1" x="0" y="0" version="1.1" viewBox="0 0 64 65" xml:space="preserve"><circle cx="6.2" cy="56.3" r="1" fill="none" stroke="#f16723" stroke-linecap="round" stroke-linejoin="round" stroke-miterlimit="10"/><circle cx="51.4" cy="31.8" r=".3" fill="#231f20"/><circle cx="51.7" cy="4.2" r=".3" fill="#231f20"/><circle cx="3.5" cy="16.3" r=".3" fill="#231f20"/><circle cx="49.4" cy="3.3" r=".5" fill="#231f20"/><circle cx="54.1" cy="27.8" r="1.2" fill="none" stroke="#fbd108" stroke-linecap="round" stroke-linejoin="round" stroke-miterlimit="10"/><path fill="none" stroke="#f16723" stroke-linecap="round" stroke-linejoin="round" stroke-miterlimit="10" d="M59.2 53.9h2M60.2 55v-2.1"/><path fill="#ffe4b8" d="M57.7 43.9c-.1 0-.1 0 0 0-6.6 0-11.9-5.3-11.9-11.9s5.3-11.9 11.9-11.9c1.1 0 1.9-1.2 1.4-2.2C53.9 8.4 43.9 1.9 32.4 2 15.8 2.1 2.5 15.4 2.5 32s13.4 30 30 30C44 62 54 55.6 59 46.1c.5-1-.2-2.2-1.3-2.2zM39 53.4c-2.4 0-4.3-1.9-4.3-4.3s1.9-4.3 4.3-4.3 4.3 1.9 4.3 4.3-2 4.3-4.3 4.3z"/><path fill="#e7d0a8" d="M57.7 43.9c-.1 0-.1 0 0 0-6.6 0-11.9-5.3-11.9-11.9s5.3-11.9 11.9-11.9c1.1 0 1.9-1.2 1.4-2.2C53.9 8.4 43.9 1.9 32.4 2c-.6 0-1.3 0-1.9.1 10.6.7 19.7 6.9 24.4 15.8.5 1-.2 2.2-1.4 2.2-6.6 0-10.9 5.3-10.9 11.9S47 43.9 53.5 43.9c1.2 0 1.9 1.2 1.3 2.2-4.6 8.9-13.7 15.1-24.3 15.8.7 0 1.3.1 2 .1C44 62 54 55.6 59 46.1c.5-1-.2-2.2-1.3-2.2z"/><path fill="#fff" d="M5.5 32c0-16 13.1-29 28.9-29.9-.7-.1-1.4-.1-2-.1-16.6.1-29.9 13.4-29.9 30s13.4 30 30 30c.6 0 1.2 0 1.9-.1C18.7 61 5.5 48 5.5 32z"/><path fill="none" stroke="#4d9ad4" stroke-linecap="round" stroke-linejoin="round" stroke-miterlimit="10" d="M9 5.6h2.1M10.1 6.6v-2"/><circle cx="55.6" cy="57.9" r=".3" fill="#231f20"/><path fill="none" stroke="#231f20" stroke-linecap="round" stroke-linejoin="round" stroke-miterlimit="10" stroke-width="1.5" d="M5.7 45.5c5 9.8 15.1 16.5 26.8 16.5C44 62 54 55.6 59 46.1c.5-1-.2-2.2-1.3-2.2-6.6 0-11.9-5.3-11.9-11.9M3.5 39.4c.4 1.4.8 2.8 1.4 4.2m41.3-14.8c1.4-5 6-8.7 11.5-8.7 1.1 0 1.9-1.2 1.4-2.2C53.9 8.4 43.9 1.9 32.4 2 15.8 2.1 2.5 15.4 2.5 32c0 2 .1 3.6.5 5.5m36 16.1c-2.5 0-4.5-2-4.5-4.5s2-4.5 4.5-4.5 4.5 2 4.5 4.5-2 4.5-4.5 4.5z"/><ellipse cx="23.6" cy="17.1" fill="#ed3c7a" rx="4.4" ry="6.2"/><ellipse cx="20.3" cy="17.1" fill="#fff" rx="4.4" ry="6.2"/><ellipse cx="21.4" cy="17.1" fill="#ef5e87" rx="3.6" ry="6.2"/><ellipse cx="41.1" cy="13.9" fill="#3768a4" rx="4.4" ry="6.2"/><ellipse cx="37.9" cy="13.9" fill="#fff" rx="4.4" ry="6.2"/><ellipse cx="39" cy="13.9" fill="#4d9ad4" rx="3.6" ry="6.2"/><ellipse cx="15.8" cy="33.1" fill="#f9ae19" rx="4.4" ry="6.2"/><ellipse cx="12.5" cy="33.1" fill="#fff" rx="4.4" ry="6.2"/><ellipse cx="13.6" cy="33.1" fill="#fbd108" rx="3.6" ry="6.2"/><ellipse cx="23.4" cy="48" fill="#ef5224" rx="4.4" ry="6.2"/><ellipse cx="20.2" cy="48" fill="#fff" rx="4.4" ry="6.2"/><ellipse cx="21.3" cy="48" fill="#f16723" rx="3.6" ry="6.2"/><circle cx="21.8" cy="17.1" r="6.2" fill="none" stroke="#231f20" stroke-linecap="round" stroke-linejoin="round" stroke-miterlimit="10" stroke-width="1.5"/><circle cx="39.5" cy="13.9" r="6.2" fill="none" stroke="#231f20" stroke-linecap="round" stroke-linejoin="round" stroke-miterlimit="10" stroke-width="1.5"/><circle cx="14.1" cy="33.1" r="6.2" fill="none" stroke="#231f20" stroke-linecap="round" stroke-linejoin="round" stroke-miterlimit="10" stroke-width="1.5"/><circle cx="21.8" cy="48" r="6.2" fill="none" stroke="#231f20" stroke-linecap="round" stroke-linejoin="round" stroke-miterlimit="10" stroke-width="1.5"/></svg>