<svg xmlns="http://www.w3.org/2000/svg" enable-background="new 0 0 512 512" viewBox="0 0 512 512"><path d="M488,440h-8V207c0-12.683-10.317-23-23-23h-25V32c0-4.418-3.582-8-8-8H144c-2.062,0-4.046,0.797-5.535,2.225l-56,53.667
		C80.891,81.4,80,83.486,80,85.667V184H55c-12.683,0-23,10.317-23,23v233h-8c-4.418,0-8,3.582-8,8v9.817
		C16,474.46,29.54,488,46.183,488h419.635C482.46,488,496,474.46,496,457.817V448C496,443.582,492.418,440,488,440z M432,200h25
		c3.859,0,7,3.141,7,7v233h-8V216c0-4.418-3.582-8-8-8h-16V200z M136,50.748V80h-30.524L136,50.748z M96,96h48c4.418,0,8-3.582,8-8
		V40h264v368H96V96z M88,424h336c4.418,0,8-3.582,8-8V224h8v216H72V224h8v192C80,420.418,83.582,424,88,424z M48,207
		c0-3.859,3.141-7,7-7h25v8H64c-4.418,0-8,3.582-8,8v224h-8V207z M480,457.817c0,7.82-6.362,14.183-14.183,14.183H46.183
		C38.362,472,32,465.638,32,457.817V456h448V457.817z"/><path d="M176 120c4.418 0 8-3.582 8-8V90.422l17.344 26.016c1.512 2.268 4.032 3.563 6.657 3.563.771 0 1.551-.112 2.317-.345 3.374-1.021 5.682-4.131 5.682-7.656V64c0-4.418-3.582-8-8-8s-8 3.582-8 8v21.578l-17.344-26.016c-1.955-2.934-5.596-4.242-8.975-3.219C170.308 57.365 168 60.475 168 64v48C168 116.418 171.582 120 176 120zM232 120h32c4.418 0 8-3.582 8-8s-3.582-8-8-8h-24v-8h24c4.418 0 8-3.582 8-8s-3.582-8-8-8h-24v-8h24c4.418 0 8-3.582 8-8s-3.582-8-8-8h-32c-4.418 0-8 3.582-8 8v48C224 116.418 227.582 120 232 120zM288.108 113.315c.604 3.625 3.602 6.373 7.266 6.66 3.664.292 7.053-1.959 8.216-5.445L312 89.298l8.41 25.232c1.096 3.286 4.168 5.47 7.586 5.47.209 0 .419-.008.63-.024 3.664-.287 6.661-3.035 7.266-6.66l8-48c.726-4.358-2.218-8.48-6.576-9.207-4.351-.725-8.479 2.218-9.207 6.576l-2.704 16.229L319.59 61.47C318.501 58.203 315.443 56 312 56s-6.501 2.203-7.59 5.47l-5.814 17.444-2.704-16.229c-.727-4.358-4.843-7.298-9.207-6.576-4.358.727-7.302 4.849-6.576 9.207L288.108 113.315zM360 96c-4.418 0-8 3.582-8 8 0 8.822 7.178 16 16 16h16c8.822 0 16-7.178 16-16v-8c0-8.822-7.178-16-16-16h-16v-8h16c0 4.418 3.582 8 8 8s8-3.582 8-8c0-8.822-7.178-16-16-16h-16c-8.822 0-16 7.178-16 16v8c0 8.822 7.178 16 16 16h16v8l-16 .01c0 0 0-.003 0-.01C368 99.582 364.418 96 360 96zM392 216H120c-4.418 0-8 3.582-8 8s3.582 8 8 8h272c4.418 0 8-3.582 8-8S396.418 216 392 216zM112 192c0 4.418 3.582 8 8 8h272c4.418 0 8-3.582 8-8s-3.582-8-8-8H120C115.582 184 112 187.582 112 192zM280 168h112c4.418 0 8-3.582 8-8s-3.582-8-8-8H280c-4.418 0-8 3.582-8 8S275.582 168 280 168zM392 280v-22.286c0-9.768-7.946-17.714-17.714-17.714H137.714c-6.181 0-11.626 3.188-14.796 8H120c-4.418 0-8 3.582-8 8s3.582 8 8 8v48c-4.418 0-8 3.582-8 8s3.582 8 8 8v16c-4.418 0-8 3.582-8 8s3.582 8 8 8h2.918c3.17 4.812 8.615 8 14.796 8h236.572c9.768 0 17.714-7.946 17.714-17.714V296c4.418 0 8-3.582 8-8S396.418 280 392 280zM376 350.286c0 .945-.769 1.714-1.714 1.714H137.714c-.945 0-1.714-.769-1.714-1.714v-92.572c0-.945.769-1.714 1.714-1.714h236.572c.945 0 1.714.769 1.714 1.714V350.286zM256 375.999L120 376c-4.418 0-8 3.582-8 8s3.582 8 8 8l136-.001c4.418 0 8-3.582 8-8S260.418 375.999 256 375.999z"/><path d="M352 288c4.418 0 8-3.582 8-8s-3.582-8-8-8h-32c-4.418 0-8 3.582-8 8v48c0 4.418 3.582 8 8 8h32c4.418 0 8-3.582 8-8s-3.582-8-8-8h-24v-8h24c4.418 0 8-3.582 8-8s-3.582-8-8-8h-24v-8H352zM184 288c4.418 0 8-3.582 8-8s-3.582-8-8-8h-32c-4.418 0-8 3.582-8 8v48c0 4.418 3.582 8 8 8s8-3.582 8-8v-16h24c4.418 0 8-3.582 8-8s-3.582-8-8-8h-24v-8H184zM240 272h-32c-4.418 0-8 3.582-8 8v48c0 4.418 3.582 8 8 8s8-3.582 8-8v-16h16v16c0 4.418 3.582 8 8 8s8-3.582 8-8v-48C248 275.582 244.418 272 240 272zM216 296v-8h16v8H216zM302.4 275.2c-2.653-3.536-7.669-4.251-11.2-1.601L272 288v-8c0-4.418-3.582-8-8-8s-8 3.582-8 8v48c0 4.418 3.582 8 8 8s8-3.582 8-8v-8l19.2 14.4c1.439 1.079 3.123 1.601 4.794 1.6 2.432 0 4.834-1.104 6.406-3.2 2.65-3.534 1.935-8.549-1.601-11.2L277.333 304l23.467-17.6C304.335 283.749 305.051 278.734 302.4 275.2z"/></svg>