<svg xmlns="http://www.w3.org/2000/svg" viewBox="0 0 512 512"><g data-name="Layer 16"><path fill="#f39c12" d="M74.542 218.009l-43.46 139.8s35.305-44.2 36.444-36.336S82.331 386.3 82.331 386.3l56.944-47.475 4.555 73.289 68.4-90.638L104.352 218.009zM437.458 218.009l43.46 139.8s-35.305-44.2-36.444-36.336S429.669 386.3 429.669 386.3l-56.943-47.475-4.556 73.289-68.4-90.639L407.648 218.009z"/><path fill="#f4dcc6" d="M194.966,156.646H317.035A80.669,80.669,0,0,1,397.7,237.315V298.35A141.7,141.7,0,0,1,256,440.053h0a141.7,141.7,0,0,1-141.7-141.7V237.315A80.669,80.669,0,0,1,194.966,156.646Z"/><path fill="#c99673" d="M317.035 156.646H194.966A80.668 80.668 0 0 0 114.3 237.314v2.093H397.7v-2.093A80.668 80.668 0 0 0 317.035 156.646zM256 429.744h0a141.7 141.7 0 0 1-141.7-141.7v10.308A141.7 141.7 0 0 0 256 440.053h0a141.7 141.7 0 0 0 141.7-141.7V288.041A141.7 141.7 0 0 1 256 429.744z"/><path fill="#ecf0f1" d="M153.214,311.333a36.042,36.042,0,0,1,55.4,0,45.967,45.967,0,1,0-55.4,0Z"/><path fill="#bdc3c7" d="M180.915,228.745a45.967,45.967,0,0,0-45.967,45.967h91.934A45.967,45.967,0,0,0,180.915,228.745Z"/><path fill="#414141" d="M162.653,303.353a35.824,35.824,0,0,1,36.523,0c7.9-6.408,13.057-16.835,13.057-28.641,0-19.5-14.022-35.3-31.318-35.3s-31.319,15.807-31.319,35.3C149.6,286.518,154.757,296.945,162.653,303.353Z"/><ellipse cx="180.915" cy="274.712" fill="#313131" rx="15.785" ry="17.794"/><path fill="#bdc3c7" d="M331.086,228.745a45.967,45.967,0,0,0-45.967,45.967h91.934A45.967,45.967,0,0,0,331.086,228.745Z"/><path fill="#ecf0f1" d="M303.386,311.333a36.041,36.041,0,0,1,55.4,0,45.969,45.969,0,1,0-55.4,0Z"/><path fill="#bdc3c7" d="M330.9,228.745a45.967,45.967,0,0,0-45.967,45.967h91.934A45.967,45.967,0,0,0,330.9,228.745Z"/><path fill="#414141" d="M312.824,303.353a35.825,35.825,0,0,1,36.524,0c7.9-6.408,13.056-16.835,13.056-28.641,0-19.5-14.021-35.3-31.319-35.3s-31.318,15.807-31.318,35.3C299.767,286.518,304.927,296.945,312.824,303.353Z"/><ellipse cx="331.086" cy="274.712" fill="#313131" rx="15.785" ry="17.794"/><circle cx="160.526" cy="274.712" r="10.25" fill="#ecf0f1"/><circle cx="310.697" cy="274.712" r="10.25" fill="#ecf0f1"/><path fill="#c99673" d="M260.9,338.826l15.817-17.974a6.524,6.524,0,0,0-4.9-10.833H240.187a6.523,6.523,0,0,0-4.9,10.833l15.816,17.974A6.523,6.523,0,0,0,260.9,338.826Z"/><ellipse cx="314.761" cy="200.29" fill="#f39c12" rx="31.579" ry="10.629" transform="rotate(-11.107 314.772 200.294)"/><ellipse cx="196.7" cy="200.29" fill="#f39c12" rx="10.629" ry="31.579" transform="rotate(-78.893 196.698 200.29)"/><path fill="#f1c40f" d="M256,36.548A181.461,181.461,0,0,0,74.542,218.009v80.34l29.81-80.34v80.34l44.424-80.34,29.509-46.97,12.368,16.648h-.336L213.179,218l0,0,60.579,80.34.825-5.92a307.708,307.708,0,0,1,53.869-135.687l37.878,61.267h0l44.425,80.34v-80.34l26.7,80.34v-80.34A181.461,181.461,0,0,0,256,36.548Z"/><path fill="#ffeda1" d="M360.93,209.27l24.153-24.151L410.9,210.935l23.882-23.881a180.278,180.278,0,0,0-23.125-62.334l-.757-.757-25.816,25.815-25.816-25.815-25.815,25.815-25.817-25.815L281.82,149.778,256,123.963l-25.816,25.815-25.815-25.815-25.817,25.815L152.74,123.963l-25.815,25.815-25.817-25.815-.758.758a180.284,180.284,0,0,0-23.124,62.333l23.882,23.881,25.817-25.816,25.815,25.816,1.293-1.293,24.252-38.6,12.368,16.648h-.336l16.037,21.267,23.834-23.835L256,210.935l25.816-25.816,19,19a307.7,307.7,0,0,1,27.636-47.375Z"/><path d="M180.915 233.158a41.6 41.6 0 0 1 41.554 41.553 4.413 4.413 0 1 0 8.826 0 50.38 50.38 0 0 0-100.76 0 4.413 4.413 0 1 0 8.826 0A41.6 41.6 0 0 1 180.915 233.158zM315.968 329.65a4.413 4.413 0 0 0-4.413 4.413 55.555 55.555 0 0 1-111.11 0 4.413 4.413 0 1 0-8.826 0 64.381 64.381 0 1 0 128.762 0A4.413 4.413 0 0 0 315.968 329.65z"/><path d="M485.1,356.328,441.858,217.235c-.419-102.459-83.894-185.687-186.45-185.687S69.385,114.766,68.956,217.217L25.712,356.329a5,5,0,0,0,8.681,4.6C44.408,348.4,56.6,334.4,63.169,328.334c3.527,16.688,13.225,57.137,13.7,59.133a5,5,0,0,0,8.064,2.675l37.026-30.87a146.787,146.787,0,0,0,14.524,24.883l1.757,28.27a5,5,0,0,0,8.981,2.7l7.606-10.079a146.426,146.426,0,0,0,201.147,0l7.605,10.078a5,5,0,0,0,8.981-2.7l1.758-28.269a146.824,146.824,0,0,0,14.524-24.884l37.025,30.869a5,5,0,0,0,8.064-2.674c.479-2,10.178-42.445,13.7-59.134,6.567,6.067,18.762,20.062,28.776,32.6a5,5,0,0,0,8.682-4.6ZM78.946,218.008c0-97.3,79.161-176.46,176.462-176.46s176.46,79.16,176.46,176.46v49.448l-16.961-51.025a5,5,0,0,0-9.745,1.577v60.966l-35.049-63.386c-.039-.07-.08-.14-.123-.209l-37.878-61.266a5,5,0,0,0-8.329-.266,314.124,314.124,0,0,0-53.852,131.908l-75.123-99.627a4.992,4.992,0,0,0-.737-1.422L181.7,168.057a5,5,0,0,0-8.247.321l-29.508,46.97c-.05.079-.1.159-.142.24l-35.049,63.386V218.008a5,5,0,0,0-9.687-1.739L78.946,270.5Zm261.019-22.783c-1.639,2.335-9.665,7.635-24.716,10.589a82.6,82.6,0,0,1-10.939,1.436q2.78-5.987,5.816-11.848c.953-.221,1.932-.435,2.954-.636C328.13,191.812,337.563,193.683,339.965,195.225ZM316.3,184.087q5.336-9.3,11.326-18.214l11.406,18.447C332.787,182.82,324.614,182.9,316.3,184.087Zm-128.493,9.366,9.652,12.8c-.8-.134-1.606-.275-2.44-.439-15.051-2.954-23.076-8.254-24.716-10.589C172.156,194.035,178.222,192.663,187.807,193.453Zm-12.066-9.915,2.293-3.65,2.47,3.325C178.857,183.255,177.263,183.362,175.741,183.538ZM84.724,377.3c-4.917-20.644-12.076-51.226-12.846-56.539a5.931,5.931,0,0,0-4.284-5.011c-3.694-1-7.422-.177-24.831,19.638-.036.041-.072.081-.107.122l26.29-84.573v47.413a5,5,0,0,0,9.688,1.739l20.122-54.231v52.492a5,5,0,0,0,9.376,2.42l.586-1.061a145.939,145.939,0,0,0,9.228,49.894Zm62.662,21.014-.054-.865c.129.141.261.279.39.419Zm216.036,0-.336-.445c.13-.14.261-.278.39-.419Zm28.686-99.964c0,75.379-61.325,136.7-136.7,136.7h0c-75.378,0-136.7-61.325-136.7-136.7V281.654l33.788-61.1,11.173-17.785a28.963,28.963,0,0,0,6.6,4.943c5.925,3.38,14.032,6.193,22.827,7.92a93.247,93.247,0,0,0,12.653,1.617l63.427,84.116a5,5,0,0,0,8.945-2.321l.824-5.919q1.105-7.932,2.641-15.791a4.4,4.4,0,0,0,7.949-2.618,41.554,41.554,0,0,1,83.108,0,4.413,4.413,0,1,0,8.826,0,50.365,50.365,0,0,0-92.257-27.972,305.435,305.435,0,0,1,10.631-29.38c.17,0,.334.009.505.009a88.712,88.712,0,0,0,16.83-1.741c8.8-1.727,16.9-4.54,22.827-7.92,4.636-2.646,7.292-5.276,8.732-7.695l12.687,20.521,30.687,55.5Zm75.937,37.037c-17.411-19.818-21.137-20.645-24.83-19.638a5.932,5.932,0,0,0-4.285,5.011c-.77,5.314-7.929,35.9-12.846,56.539l-33.221-27.7a145.975,145.975,0,0,0,9.245-51.253v-4.233l3.679,6.653a5,5,0,0,0,9.375-2.42V248.9l16.961,51.024a5,5,0,0,0,9.745-1.577v-47.4l26.285,84.556Z"/><path d="M199.094 308.353a5 5 0 0 0 3.151-1.117c9.334-7.574 14.907-19.733 14.907-32.524 0-22.223-16.293-40.3-36.319-40.3s-36.318 18.081-36.318 40.3c0 12.791 5.573 24.95 14.907 32.524a5 5 0 0 0 5.689.425 30.82 30.82 0 0 1 31.445 0A5 5 0 0 0 199.094 308.353zm-35.753-11.06a32.493 32.493 0 0 1-8.826-22.581c0-16.71 11.806-30.3 26.318-30.3s26.319 13.594 26.319 30.3a32.493 32.493 0 0 1-8.826 22.581 40.764 40.764 0 0 0-34.985 0zM331 234.408c-20.026 0-36.318 18.081-36.318 40.3 0 12.79 5.572 24.949 14.906 32.524a5 5 0 0 0 5.689.425 30.823 30.823 0 0 1 31.447 0 5 5 0 0 0 5.69-.426c9.333-7.574 14.9-19.733 14.9-32.523C367.323 252.489 351.03 234.408 331 234.408zM348.5 297.293a40.764 40.764 0 0 0-34.985 0 32.493 32.493 0 0 1-8.826-22.581c0-16.71 11.806-30.3 26.318-30.3s26.319 13.594 26.319 30.3A32.5 32.5 0 0 1 348.5 297.293z"/></g></svg>