<svg xmlns="http://www.w3.org/2000/svg" data-name="flat final" viewBox="0 0 48 48"><path fill="#fcd3c4" d="M40.235,38.484,28.19,34.859V31.188a8.2,8.2,0,0,1-4.213,1.166H23.94a8.2,8.2,0,0,1-4.186-1.15v3.722L7.765,38.484c-2.061.555-3.933,1.813-3.933,4.69V47.25H44.168V43.174C44.168,40.3,42.3,39.039,40.235,38.484Z"/><path fill="#ffc7b5" d="M23.94 32.354a8.2 8.2 0 0 1-4.186-1.15V33.7a13.189 13.189 0 0 0 4.29.347A6.9 6.9 0 0 0 28.19 31.8v-.615a8.2 8.2 0 0 1-4.213 1.166zM15.747 17.821c-.1-.012-.253-.031-.3-.04-2.157-.462-4.3-.8-4.58 1.657-.309 2.684.884 5.5 2.609 6.174a7.728 7.728 0 0 0 2.452.335 8.031 8.031 0 0 1-.182-1.688z"/><path fill="#f9baa8" d="M16.014,18.9c-.077-.009-.2-.024-.234-.032-1.686-.36-3.358-.628-3.579,1.3-.242,2.1.691,4.3,2.039,4.825a6.015,6.015,0,0,0,1.916.262,6.3,6.3,0,0,1-.142-1.319Z"/><path fill="#ffc7b5" d="M32.17,17.821c.1-.012.253-.031.3-.04,2.157-.462,4.3-.8,4.58,1.657.309,2.684-.884,5.5-2.609,6.174a7.728,7.728,0,0,1-2.452.335,8.031,8.031,0,0,0,.182-1.688Z"/><path fill="#f9baa8" d="M31.9,18.9c.077-.009.2-.024.234-.032,1.686-.36,3.358-.628,3.579,1.3.242,2.1-.691,4.3-2.039,4.825a6.015,6.015,0,0,1-1.916.262,6.3,6.3,0,0,0,.142-1.319Z"/><path fill="#fcd3c4" d="M35.1,1.091s-1.687,1.994-3.686,1.6C28.9,2.185,27.009.75,22.051.75c-3.678,0-9.966.742-11.128,6.389-1.379,6.7,4.525,10.642,4.525,10.642v6.478a8.444,8.444,0,0,0,8.493,8.394h.035a8.444,8.444,0,0,0,8.493-8.394V17.781A14.112,14.112,0,0,0,36.2,13.6a10.572,10.572,0,0,0,1.165-5.1A11.667,11.667,0,0,0,35.1,1.091Z"/><path fill="#fcdcd0" d="M34.89,1.308a4.171,4.171,0,0,1-3.481,1.378C28.9,2.185,27.009.75,22.051.75a15.967,15.967,0,0,0-7.642,1.627,6.807,6.807,0,0,0-2.043,3.71c-1.379,6.7,4.525,10.642,4.525,10.642v6.478a8.445,8.445,0,0,0,8.493,8.4h.036a8.52,8.52,0,0,0,4.285-1.147,8.324,8.324,0,0,0,2.764-6.2V17.781A14.112,14.112,0,0,0,36.2,13.6a10.572,10.572,0,0,0,1.165-5.1,11.8,11.8,0,0,0-2.213-7.339C35.07,1.216,34.981,1.263,34.89,1.308Z"/><path fill="#32322d" d="M32.469,17.781s-1-5.661-2.468-4.622A7.673,7.673,0,0,1,23.42,14.9a12.553,12.553,0,0,1-4.882-1.708,12.644,12.644,0,0,1-1.884,3.25,11.756,11.756,0,0,1-1.206,1.338s-5.9-3.943-4.525-10.642C12.085,1.492,18.373.75,22.051.75c4.958,0,6.844,1.435,9.358,1.936,2,.4,3.686-1.595,3.686-1.595a11.668,11.668,0,0,1,2.273,7.415A10.571,10.571,0,0,1,36.2,13.6,14.112,14.112,0,0,1,32.469,17.781Z"/><path fill="#3c3c37" d="M32.815,14.453a14.112,14.112,0,0,0,3.734-4.179,9.975,9.975,0,0,0,.817-2.1A11.658,11.658,0,0,0,35.1,1.091s-1.687,1.994-3.686,1.6C28.9,2.185,27.009.75,22.051.75c-3.532,0-9.459.7-10.953,5.754.371,5.046,4.695,7.949,4.695,7.949A11.706,11.706,0,0,0,17,13.115a12.656,12.656,0,0,0,1.883-3.25,12.561,12.561,0,0,0,4.882,1.708,7.669,7.669,0,0,0,6.581-1.741C31.812,8.793,32.815,14.453,32.815,14.453Z"/><path fill="#d9f0fb" d="M15.457,24.433a8.441,8.441,0,0,0,8.484,8.22h.035a8.442,8.442,0,0,0,8.487-8.27c-1.257-.527-6.018-2.45-8.5-2.45C21.383,21.933,16.462,24,15.457,24.433Z"/><path fill="#e5f9ff" d="M32.467,24.393c-1.424-.593-6.1-2.46-8.507-2.46-1.911,0-5.109,1.135-7.045,1.9A8.452,8.452,0,0,0,25.384,31.6h.036a8.52,8.52,0,0,0,4.285-1.147A8.325,8.325,0,0,0,32.467,24.393Z"/><path fill="#32322d" d="M20.668 19.781h-.537a.75.75 0 0 1 0-1.5h.537a.75.75 0 0 1 0 1.5zM27.869 19.781h-.537a.75.75 0 0 1 0-1.5h.537a.75.75 0 0 1 0 1.5z"/><path fill="#f5c44e" d="M40.235,38.484,28.19,34.859,24,40.715l-4.246-5.789L7.765,38.484c-2.061.555-3.933,1.813-3.933,4.69V47.25H44.168V43.174C44.168,40.3,42.3,39.039,40.235,38.484Z"/><path fill="#f5d26c" d="M44.168,43.174c0-2.877-1.872-4.135-3.933-4.69L28.19,34.859,24,40.715l-4.246-5.789-9.285,2.756a4.3,4.3,0,0,0-1.7,3.656h0a4.076,4.076,0,0,0,4.076,4.076h31.32Z"/><polygon fill="#f5c44e" points="15.425 36.211 19.769 43.81 23.25 40.715 19.138 35.109 15.425 36.211"/><polygon fill="#f5c44e" points="31.362 36.116 28.012 35.108 24 40.715 23.635 41.039 26.893 43.935 31.362 36.116"/><rect width="1" height="6.535" x="23.5" y="40.715" fill="#f5e17b"/><polygon fill="#f5e17b" points="28.19 34.859 24 40.715 27.482 43.81 31.951 35.992 28.19 34.859"/><polygon fill="#f5e17b" points="19.754 34.926 16.066 36.021 20.518 43.81 24 40.715 19.754 34.926"/></svg>