<svg xmlns="http://www.w3.org/2000/svg" data-name="Layer 1" viewBox="0 0 512 512"><path fill="#aeadb3" d="M347.22,374.33c5.94-7.55,21.25-23.23,36.21-28.95,17.16-6.56,28-2.15,38.82-10.08,6.47-4.74,13.91-14.61,14.94-37.8h-90Z"/><path fill="#8b8893" d="M407.19,297.5c-1,23.19-8.47,33.06-14.94,37.8-10.83,7.93-21.66,3.52-38.82,10.08a50.28,50.28,0,0,0-6.21,2.91v26c5.94-7.55,21.25-23.23,36.21-28.95,17.16-6.56,28-2.15,38.82-10.08,6.47-4.74,13.91-14.61,14.94-37.8Z"/><path fill="#aeadb3" d="M347.22,248.33c5.94-7.55,21.25-23.23,36.21-29,17.16-6.56,28-2.15,38.82-10.08,6.47-4.74,13.91-14.61,14.94-37.8h-90Z"/><path fill="#8b8893" d="M407.19,171.5c-1,23.19-8.47,33.06-14.94,37.8-10.83,7.93-21.66,3.52-38.82,10.08a50.28,50.28,0,0,0-6.21,2.91v26c5.94-7.55,21.25-23.23,36.21-29,17.16-6.56,28-2.15,38.82-10.08,6.47-4.74,13.91-14.61,14.94-37.8Z"/><path fill="#aeadb3" d="M347.22,122.33c5.94-7.55,21.25-23.23,36.21-28.95,17.16-6.56,28-2.15,38.82-10.08,6.47-4.74,13.91-14.61,14.94-37.8h-90Z"/><path fill="#8b8893" d="M407.19,45.5c-1,23.19-8.47,33.06-14.94,37.8-10.83,7.93-21.66,3.52-38.82,10.08a50.28,50.28,0,0,0-6.21,2.91v26c5.94-7.55,21.25-23.23,36.21-28.95,17.16-6.56,28-2.15,38.82-10.08,6.47-4.74,13.91-14.61,14.94-37.8Z"/><path fill="#aeadb3" d="M167.22 297.5v76.83C161.28 366.78 146 351.1 131 345.38l-.05 0c-17.13-6.53-27.95-2.14-38.76-10.06-6.48-4.74-13.91-14.61-14.94-37.8h90zM167.22 171.5v76.83c-5.94-7.55-21.25-23.23-36.22-29l-.05 0c-17.13-6.53-27.95-2.14-38.76-10.06-6.48-4.74-13.91-14.61-14.94-37.8h90zM167.22 45.5v76.83C161.28 114.78 146 99.1 131 93.38l-.05 0C113.82 86.83 103 91.22 92.19 83.3c-6.48-4.74-13.91-14.61-14.94-37.8h90z"/><rect width="190" height="417" x="160.95" y="7.5" fill="#787681" rx="42.6"/><path fill="#8b8893" d="M167.22 45.5v76.83C161.28 114.78 146 99.1 131 93.38l-.05 0V50.1a41.18 41.18 0 0 1 .25-4.6zM131 171.5h36.27v76.83c-5.94-7.55-21.25-23.23-36.22-29l-.05 0z"/><rect width="62" height="98.04" x="225" y="413.96" fill="#aeadb3"/><rect width="30" height="98.04" x="257" y="413.96" fill="#8b8893"/><path fill="#8b8893" d="M131,297.5h36.27v76.83C161.28,366.78,146,351.1,131,345.38l-.05,0Z"/><rect width="190" height="417" x="160.95" y="6.5" fill="#787681" rx="42.6"/><path fill="#57565c" d="M308.35,6.5h-30A42.6,42.6,0,0,1,321,49.1V380.9a42.6,42.6,0,0,1-42.6,42.6h30A42.6,42.6,0,0,0,351,380.9V49.1A42.6,42.6,0,0,0,308.35,6.5Z"/><circle cx="255.95" cy="90.5" r="45" fill="#ed4769"/><path fill="#eb304a" d="M256,45.5a44.88,44.88,0,0,0-15,2.57,45,45,0,0,1,0,84.86A45,45,0,1,0,256,45.5Z"/><circle cx="255.95" cy="216.5" r="45" fill="#fee27d"/><path fill="#fddd5a" d="M256,171.5a44.88,44.88,0,0,0-15,2.57,45,45,0,0,1,0,84.86,45,45,0,1,0,15-87.43Z"/><circle cx="255.95" cy="342.5" r="45" fill="#7dc7a2"/><path fill="#56bc8d" d="M256,297.5a44.88,44.88,0,0,0-15,2.57,45,45,0,0,1,0,84.86,45,45,0,1,0,15-87.43Z"/><path fill="#18171c" d="M256,164a52.5,52.5,0,1,0,52.5,52.5A52.56,52.56,0,0,0,256,164Zm0,90a37.5,37.5,0,1,1,37.5-37.5A37.54,37.54,0,0,1,256,254Zm102.53-6.4c7.95-10.1,17.24-17.24,27.63-21.21,6.9-2.64,12.64-3.27,18.2-3.89,7.3-.8,14.85-1.63,22.37-7.15,11-8.08,17.08-22.72,18-43.52a7.5,7.5,0,0,0-7.49-7.83H358.45V121.64l0,0c7.95-10.1,17.24-17.24,27.63-21.21,6.9-2.64,12.64-3.27,18.2-3.89,7.3-.8,14.85-1.63,22.37-7.15,11-8.08,17.08-22.72,18-43.52A7.5,7.5,0,0,0,437.19,38H357A50.17,50.17,0,0,0,308.35,0H203.54a50.18,50.18,0,0,0-48.61,38H74.81a7.5,7.5,0,0,0-7.49,7.83c.92,20.8,7,35.44,18,43.52,7.52,5.52,15.07,6.35,22.37,7.15,5.56.62,11.3,1.25,18.2,3.89,10.35,4,19.63,11.06,27.56,21.12V164H74.81a7.5,7.5,0,0,0-7.49,7.83c.92,20.8,7,35.44,18,43.52,7.52,5.52,15.07,6.35,22.37,7.15,5.56.62,11.3,1.25,18.2,3.89,10.35,4,19.63,11.06,27.56,21.12V290H74.81a7.5,7.5,0,0,0-7.49,7.83c.92,20.8,7,35.44,18,43.52,7.52,5.52,15.07,6.35,22.37,7.15,5.56.62,11.3,1.25,18.2,3.89,10.35,4,19.63,11.06,27.56,21.12v8.39A50.15,50.15,0,0,0,203.54,432h14v72.5a7.5,7.5,0,0,0,15,0V432h47v72.5a7.5,7.5,0,0,0,15,0V432h13.85a50.16,50.16,0,0,0,50.1-50.1v-8.26l0,0c7.95-10.1,17.24-17.24,27.63-21.21,6.9-2.64,12.64-3.27,18.2-3.89,7.3-.8,14.85-1.63,22.37-7.15,11-8.08,17.08-22.72,18-43.52a7.5,7.5,0,0,0-7.49-7.83H358.45V247.64Zm0-194.6H429c-1.52,11.76-5.28,19.9-11.22,24.25-4.29,3.15-8.6,3.62-15.14,4.34-5.89.65-13.22,1.46-21.91,4.79A74.34,74.34,0,0,0,358.45,99.9Zm0,126H429c-1.52,11.76-5.28,19.9-11.22,24.25-4.29,3.15-8.6,3.62-15.14,4.34-5.89.65-13.22,1.46-21.91,4.79a74.34,74.34,0,0,0-22.31,13.52Zm-205,172.81a74.11,74.11,0,0,0-22.21-13.43c-8.69-3.33-16-4.14-21.91-4.79-6.54-.72-10.85-1.19-15.14-4.34C88.25,324.9,84.49,316.76,83,305h70.48Zm0-126a74.11,74.11,0,0,0-22.21-13.43c-8.69-3.33-16-4.14-21.91-4.79-6.54-.72-10.85-1.19-15.14-4.34C88.25,198.9,84.49,190.76,83,179h70.48Zm0-126a74.11,74.11,0,0,0-22.21-13.43c-8.69-3.33-16-4.14-21.91-4.79-6.54-.72-10.85-1.19-15.14-4.34C88.25,72.9,84.49,64.76,83,53h70.48Zm190,282.09a35.14,35.14,0,0,1-35.1,35.1H203.54a35.13,35.13,0,0,1-35.09-35.1V50.1A35.13,35.13,0,0,1,203.54,15H308.35a35.14,35.14,0,0,1,35.1,35.1ZM429,305c-1.52,11.76-5.28,19.9-11.22,24.25-4.29,3.15-8.6,3.62-15.14,4.34-5.89.65-13.22,1.46-21.91,4.79a74.34,74.34,0,0,0-22.31,13.52V305ZM256,38a52.5,52.5,0,1,0,52.5,52.5A52.56,52.56,0,0,0,256,38Zm0,90a37.5,37.5,0,1,1,37.5-37.5A37.54,37.54,0,0,1,256,128Zm0,162a52.5,52.5,0,1,0,52.5,52.5A52.56,52.56,0,0,0,256,290Zm0,90a37.5,37.5,0,1,1,37.5-37.5A37.54,37.54,0,0,1,256,380Z"/></svg>