<svg width="1024" height="1024" viewBox="0 0 1024 1024" fill="none" xmlns="http://www.w3.org/2000/svg">
<g clip-path="url(#clip0_22_86)">
<path d="M259.664 1020.38C220.057 1019.93 180.822 1012.67 143.681 998.902C116.56 988.877 92.0216 972.917 71.8607 952.189C51.0772 932.069 35.0939 907.524 25.098 880.379C11.3418 843.24 4.08779 804.008 3.65427 764.406C0.612392 698.569 0 678.822 0 512C0 345.178 0.672627 325.501 3.62416 259.614C4.11028 220.027 11.3732 180.816 25.098 143.681C35.1426 116.555 51.1032 92.0073 71.8205 71.8205C91.9565 51.0557 116.506 35.0873 143.651 25.098C180.791 11.3304 220.027 4.06617 259.634 3.62416C325.491 0.612392 345.269 0 512 0C678.731 0 698.498 0.672627 764.386 3.62416C803.983 4.10685 843.205 11.3699 880.349 25.098C907.482 35.1005 932.025 51.0634 952.169 71.8105C972.923 91.9616 988.892 116.511 998.902 143.651C1012.67 180.791 1019.94 220.026 1020.39 259.634C1023.4 325.522 1024.01 345.249 1024.01 512.02C1024.01 678.791 1023.4 698.519 1020.39 764.406C1019.91 804.008 1012.64 843.234 998.902 880.379C988.509 907.316 972.591 931.778 952.173 952.191C931.755 972.604 907.288 988.516 880.349 998.902C843.209 1012.67 803.974 1019.94 764.366 1020.39C698.539 1023.4 678.751 1024.01 511.98 1024.01C345.208 1024.01 325.481 1023.43 259.654 1020.39" fill="url(#paint0_radial_22_86)"/>
<path d="M259.664 1020.38C220.057 1019.93 180.822 1012.67 143.681 998.902C116.56 988.877 92.0216 972.917 71.8607 952.189C51.0772 932.069 35.0939 907.524 25.098 880.379C11.3418 843.24 4.08779 804.008 3.65427 764.406C0.612392 698.569 0 678.822 0 512C0 345.178 0.672627 325.501 3.62416 259.614C4.11028 220.027 11.3732 180.816 25.098 143.681C35.1426 116.555 51.1032 92.0073 71.8205 71.8205C91.9565 51.0557 116.506 35.0873 143.651 25.098C180.791 11.3304 220.027 4.06617 259.634 3.62416C325.491 0.612392 345.269 0 512 0C678.731 0 698.498 0.672627 764.386 3.62416C803.983 4.10685 843.205 11.3699 880.349 25.098C907.482 35.1005 932.025 51.0634 952.169 71.8105C972.923 91.9616 988.892 116.511 998.902 143.651C1012.67 180.791 1019.94 220.026 1020.39 259.634C1023.4 325.522 1024.01 345.249 1024.01 512.02C1024.01 678.791 1023.4 698.519 1020.39 764.406C1019.91 804.008 1012.64 843.234 998.902 880.379C988.509 907.316 972.591 931.778 952.173 952.191C931.755 972.604 907.288 988.516 880.349 998.902C843.209 1012.67 803.974 1019.94 764.366 1020.39C698.539 1023.4 678.751 1024.01 511.98 1024.01C345.208 1024.01 325.481 1023.43 259.654 1020.39" fill="url(#paint1_radial_22_86)"/>
<path fill-rule="evenodd" clip-rule="evenodd" d="M512 0C794.77 0 1024 229.23 1024 512C1024 794.77 794.77 1024 512 1024C229.23 1024 0 794.77 0 512C0 229.23 229.23 0 512 0Z" fill="white" fill-opacity="0.24"/>
<path d="M513.358 1024.21C513.513 1024.22 513.668 1024.24 513.824 1024.25C526.093 1024.26 538.358 1023.84 550.598 1022.98C567.901 1021.75 585.131 1019.66 602.225 1016.72C619.303 1013.77 636.223 1009.97 652.922 1005.33C669.633 1000.69 686.101 995.207 702.264 988.914C718.42 982.642 734.253 975.566 749.702 967.713C765.148 959.837 780.189 951.193 794.771 941.814C809.357 932.454 823.467 922.369 837.046 911.6C850.63 900.818 863.666 889.364 876.105 877.28C888.538 865.211 900.359 852.528 911.525 839.279C922.704 826.017 933.212 812.204 943.01 797.892C952.799 783.585 961.866 768.798 970.178 753.585C978.486 738.371 986.028 722.75 992.775 706.782C999.524 690.811 1005.47 674.512 1010.59 657.947C1015.72 641.386 1020.01 624.579 1023.46 607.589C1023.7 605.982 1023.94 604.374 1024.18 602.765L678.609 257.199L678.312 257.41L518.14 182L354.794 257.283H354.709V258.51V446.993L203 509.285C203.109 509.502 203.028 509.662 203.042 509.835V713.891L513.358 1024.21Z" fill="#2E0053" fill-opacity="0.76"/>
<path d="M518.14 182.007L354.794 257.29L354.709 257.248V257.332V258.56V447.043L203 509.334C203.109 509.482 203.028 509.701 203.042 509.884V713.94L354.709 797.01V797.138L516.616 719.569L658.042 796.884L824.562 721.305V517.418L824.647 517.249L678.608 447.425V257.206L678.312 257.333L518.14 182.007ZM518.056 205.916L653.049 269.435L516.617 334.774L380.184 269.435L518.056 205.916ZM375.276 289.874L506.376 352.674V510.096L375.276 447.423V289.874ZM658 289.874V447.466L526.942 510.096V352.632L658 289.874ZM364.654 466.382L492.072 527.277L354.878 593.039L226.91 522.96L364.654 466.382ZM668.326 466.551L798.833 528.927L668.326 588.13L541.203 527.277L668.326 466.551ZM506.376 543.273V543.696V701.668L375.275 764.467V606.072L506.376 543.273ZM526.942 543.316L658.042 606.073V774.032L526.942 702.388V543.739V543.316ZM223.609 544.036L354.709 615.806V774.159L223.609 702.388V544.036ZM803.954 549.452V707.847L678.609 764.722V606.285L803.954 549.452Z" fill="white"/>
</g>
<defs>
<radialGradient id="paint0_radial_22_86" cx="0" cy="0" r="1" gradientUnits="userSpaceOnUse" gradientTransform="translate(66.2688 1001.57) scale(1300.1)">
<stop offset="0.09" stop-color="#21FAED"/>
<stop offset="0.78" stop-color="#2D53D8"/>
</radialGradient>
<radialGradient id="paint1_radial_22_86" cx="0" cy="0" r="1" gradientUnits="userSpaceOnUse" gradientTransform="translate(709.291 968.684) scale(1144.1)">
<stop offset="0.166667" stop-color="#8C3AAA"/>
<stop offset="0.64" stop-color="#8C3AAA" stop-opacity="0"/>
<stop offset="0.973958" stop-color="#8C3AAA"/>
</radialGradient>
<clipPath id="clip0_22_86">
<rect width="1024" height="1024" fill="white"/>
</clipPath>
</defs>
</svg>
